<svg xmlns="http://www.w3.org/2000/svg" xmlns:xlink="http://www.w3.org/1999/xlink" width="34.157" height="40.634" viewBox="0 0 34.157 40.634">
  <defs>
    <clipPath id="clip-path">
      <rect id="Rectangle_90" data-name="Rectangle 90" width="34.157" height="40.634" transform="translate(0 0)" fill="none"/>
    </clipPath>
  </defs>
  <g id="Group_97" data-name="Group 97" transform="translate(0 0)">
    <g id="Group_96" data-name="Group 96" clip-path="url(#clip-path)">
      <path id="Path_66" data-name="Path 66" d="M33.092,13.7a10.935,10.935,0,0,0-1.372.966,9.186,9.186,0,0,0-1.653,1.752,7.64,7.64,0,0,0-.825,1.456,8.041,8.041,0,0,0-.617,2.375,11.15,11.15,0,0,0-.038,1.827,9.23,9.23,0,0,0,.39,2.126,8.374,8.374,0,0,0,.974,2.067,9.044,9.044,0,0,0,1.48,1.717,9.215,9.215,0,0,0,1.642,1.233c.347.2.713.372,1.08.562a.288.288,0,0,1,0,.109c-.156.417-.308.837-.477,1.249-.2.484-.4.966-.624,1.439-.183.39-.388.77-.6,1.146-.225.4-.459.8-.7,1.184-.2.311-.409.613-.627.909-.4.546-.8,1.094-1.221,1.626A11.945,11.945,0,0,1,28.35,39.1a6.383,6.383,0,0,1-1.433.974,4.728,4.728,0,0,1-1.664.477,6.029,6.029,0,0,1-1.9-.164,14.85,14.85,0,0,1-1.676-.536c-.537-.2-1.073-.407-1.623-.561a7.908,7.908,0,0,0-2.886-.257,9.592,9.592,0,0,0-2.374.547c-.445.16-.887.331-1.331.5a10.105,10.105,0,0,1-1.549.446,4.547,4.547,0,0,1-1.943.007,4.576,4.576,0,0,1-.762-.263,7.594,7.594,0,0,1-2.344-1.726,17.361,17.361,0,0,1-1.7-2.031c-.411-.567-.834-1.126-1.223-1.707-.3-.446-.564-.914-.821-1.385-.292-.534-.574-1.074-.831-1.626-.233-.5-.433-1.014-.635-1.527-.171-.434-.341-.87-.48-1.315-.214-.69-.418-1.383-.594-2.083C.45,26.342.347,25.8.264,25.266A16.813,16.813,0,0,1,0,22.56c.005-.6-.017-1.208.015-1.809.025-.48.112-.957.171-1.435a10.482,10.482,0,0,1,.4-1.78,11.859,11.859,0,0,1,.479-1.293,13.873,13.873,0,0,1,.623-1.251,10.53,10.53,0,0,1,.833-1.254,10.136,10.136,0,0,1,1.7-1.744,10.73,10.73,0,0,1,1.236-.854,9.311,9.311,0,0,1,1.227-.625,10.585,10.585,0,0,1,1.428-.477,12.061,12.061,0,0,1,1.972-.3,6.088,6.088,0,0,1,1.565.12,12.644,12.644,0,0,1,2.026.553c.493.176.982.363,1.477.531a13.332,13.332,0,0,0,2,.575,1.074,1.074,0,0,0,.419-.006c.344-.08.686-.175,1.024-.281.445-.14.886-.292,1.327-.444.374-.129.747-.263,1.119-.4a14.081,14.081,0,0,1,2.146-.59,8.015,8.015,0,0,1,1.9-.161,12.481,12.481,0,0,1,1.815.214,11.786,11.786,0,0,1,1.6.421,9.2,9.2,0,0,1,1.5.657,9.588,9.588,0,0,1,1.439.973A9.079,9.079,0,0,1,32.9,13.429c.066.087.127.177.2.276"/>
      <path id="Path_67" data-name="Path 67" d="M17.14,9.6A5.037,5.037,0,0,1,17.1,8.336a6.947,6.947,0,0,1,.291-1.606c.134-.424.3-.839.476-1.248a8.031,8.031,0,0,1,.805-1.418,9.923,9.923,0,0,1,1.364-1.589A9.8,9.8,0,0,1,23.527.434C23.9.318,24.273.2,24.653.122c.3-.065.612-.082.928-.122a5.3,5.3,0,0,1,.048,1.213A8.392,8.392,0,0,1,25.28,3.2a7.387,7.387,0,0,1-.638,1.5c-.2.35-.4.7-.631,1.029A10.3,10.3,0,0,1,23.2,6.735c-.329.359-.68.7-1.041,1.027A7.063,7.063,0,0,1,20.67,8.805a9.355,9.355,0,0,1-.9.417,5.97,5.97,0,0,1-2.457.4A1.535,1.535,0,0,1,17.14,9.6"/>
    </g>
  </g>
</svg>
