<svg xmlns="http://www.w3.org/2000/svg" xmlns:xlink="http://www.w3.org/1999/xlink" width="20.975" height="40.634" viewBox="0 0 20.975 40.634">
  <defs>
    <clipPath id="clip-path">
      <rect id="Rectangle_89" data-name="Rectangle 89" width="20.975" height="40.634" transform="translate(0 0)" fill="none"/>
    </clipPath>
  </defs>
  <g id="Group_95" data-name="Group 95" transform="translate(0 0)">
    <g id="Group_94" data-name="Group 94" clip-path="url(#clip-path)">
      <path id="Path_65" data-name="Path 65" d="M6.355,40.634H13.89v-1.76q0-8.322,0-16.644c0-.039,0-.079,0-.119-.007-.092.035-.132.125-.128.064,0,.128,0,.192,0H19.4c.2,0,.2,0,.234-.207.139-.87.3-1.737.412-2.611.1-.764.238-1.521.346-2.283.068-.471.155-.94.229-1.411.017-.109.015-.222.023-.333.017-.227.018-.228-.2-.228h-5.16c-.4,0-.8,0-1.194,0-.188,0-.192,0-.192-.179,0-1.563-.009-3.125.007-4.687A4.187,4.187,0,0,1,14.2,8.6a3.066,3.066,0,0,1,1.249-1.518,3.577,3.577,0,0,1,.961-.41A5.8,5.8,0,0,1,18,6.483c.9,0,1.8,0,2.7,0,.055,0,.111,0,.167,0,.085,0,.112-.041.108-.118,0-.039,0-.079,0-.119q0-2.8,0-5.595c0-.177,0-.179-.17-.208-.714-.122-1.43-.229-2.152-.285-.9-.07-1.808-.139-2.717-.155a17.8,17.8,0,0,0-2.116.1,9.736,9.736,0,0,0-2.17.525,7.258,7.258,0,0,0-1.74.879,7.958,7.958,0,0,0-.969.762,7.582,7.582,0,0,0-.743.8,6.245,6.245,0,0,0-.784,1.194c-.139.286-.3.562-.413.861a12.207,12.207,0,0,0-.525,1.755,9.673,9.673,0,0,0-.2,1.654c-.074,1.7-.014,3.411-.034,5.116,0,.351,0,.7,0,1.052,0,.2,0,.206-.211.206H2.442c-.748,0-1.5,0-2.245,0-.193,0-.2,0-.2.2q0,3.336,0,6.673c0,.2,0,.2.217.2H5.912a1.344,1.344,0,0,0,.168,0c.134-.018.168.051.157.168a1.178,1.178,0,0,0,0,.119V40.634Z" fill="#1877f2"/>
    </g>
  </g>
</svg>
