<svg xmlns="http://www.w3.org/2000/svg" xmlns:xlink="http://www.w3.org/1999/xlink" width="11.819" height="21.686" viewBox="0 0 11.819 21.686">
  <defs>
    <clipPath id="clip-path">
      <rect id="Rectangle_483" data-name="Rectangle 483" width="11.819" height="21.686" fill="none"/>
    </clipPath>
  </defs>
  <g id="Group_780" data-name="Group 780" transform="translate(0 0)">
    <g id="Group_779" data-name="Group 779" transform="translate(0 0)" clip-path="url(#clip-path)">
      <path id="Path_661" data-name="Path 661" d="M2.957,8.393A1.481,1.481,0,1,1,1.366,7.032,1.481,1.481,0,0,1,2.957,8.393" transform="translate(0 -5.205)" fill="#4552ff"/>
      <path id="Path_662" data-name="Path 662" d="M19.588,1.366A1.481,1.481,0,1,1,18,0a1.481,1.481,0,0,1,1.592,1.361" transform="translate(-12.318 0)" fill="#4552ff"/>
      <path id="Path_663" data-name="Path 663" d="M37.109,5.723a1.481,1.481,0,1,1-1.592-1.361,1.481,1.481,0,0,1,1.592,1.361" transform="translate(-25.295 -3.227)" fill="#4552ff"/>
      <path id="Path_664" data-name="Path 664" d="M11.216,24.556v2.608h.961a1.109,1.109,0,0,1,0,2.218h-.959v2.2a1.16,1.16,0,0,1-2.32,0v-2.2H7.869a1.109,1.109,0,1,1,0-2.218H8.9V24.572a4.839,4.839,0,0,1-2.333-1.3,4.89,4.89,0,1,1,4.651,1.283" transform="translate(-3.802 -11.056)" fill="#4552ff"/>
    </g>
  </g>
</svg>
