<svg xmlns="http://www.w3.org/2000/svg" xmlns:xlink="http://www.w3.org/1999/xlink" width="34.099" height="24.967" viewBox="0 0 34.099 24.967">
  <defs>
    <clipPath id="clip-path">
      <rect id="Rectangle_157" data-name="Rectangle 157" width="34.099" height="24.967" fill="#f6ffff"/>
    </clipPath>
  </defs>
  <g id="Group_184" data-name="Group 184" clip-path="url(#clip-path)">
    <path id="Path_120" data-name="Path 120" d="M15.9,15.512c-1.955,1.58-4.282,4.37-6.349,9.4a6.727,6.727,0,0,0-.513,2.26,5.235,5.235,0,0,0,.114,1.373,1.707,1.707,0,0,0,.215.557c.108.184.392.531-.106.628a14.272,14.272,0,0,0-1.485.359C.826,32.334-.081,29.162,0,27.034a6.7,6.7,0,0,1,.512-2.259C5.306,13.108,11.441,13.4,11.441,13.4a8.113,8.113,0,0,1,4.4,1.762s.238.211.064.352" transform="translate(0 -6.058)" fill="#f6ffff"/>
    <path id="Path_121" data-name="Path 121" d="M8.953,6.377A2.257,2.257,0,1,1,6.7,4.12,2.257,2.257,0,0,1,8.953,6.377" transform="translate(-2.007 -1.863)" fill="#f6ffff"/>
    <path id="Path_122" data-name="Path 122" d="M21.313,2.257A2.257,2.257,0,1,1,19.056,0a2.257,2.257,0,0,1,2.257,2.257" transform="translate(-7.596 0)" fill="#f6ffff"/>
    <path id="Path_123" data-name="Path 123" d="M43.311,27.862c-.42,5.432-7.8,2.483-7.8,2.483a14.075,14.075,0,0,0-2.076-.42,11.969,11.969,0,0,0-5.242.42c-.23.072-.46.145-.677.21-3.875,1.116-5.7.42-6.509-.762a4.173,4.173,0,0,1-.592-2.5,6.727,6.727,0,0,1,.513-2.26c2.134-5.2,4.532-8.02,6.542-9.55a7.385,7.385,0,0,1,4.381-1.82c6.1.375,9.919,8.73,11.042,11.567a5.949,5.949,0,0,1,.42,2.634" transform="translate(-9.228 -6.177)" fill="#f6ffff"/>
    <path id="Path_124" data-name="Path 124" d="M41.722,2.514A2.257,2.257,0,1,1,39.465.257a2.257,2.257,0,0,1,2.257,2.257" transform="translate(-16.824 -0.116)" fill="#f6ffff"/>
    <path id="Path_125" data-name="Path 125" d="M54.083,6.634a2.257,2.257,0,1,1-2.257-2.257,2.257,2.257,0,0,1,2.257,2.257" transform="translate(-22.413 -1.979)" fill="#f6ffff"/>
  </g>
</svg>
