<svg xmlns="http://www.w3.org/2000/svg" xmlns:xlink="http://www.w3.org/1999/xlink" width="18.464" height="22.831" viewBox="0 0 18.464 22.831">
  <defs>
    <clipPath id="clip-path">
      <rect id="Rectangle_478" data-name="Rectangle 478" width="18.464" height="22.831" fill="none"/>
    </clipPath>
  </defs>
  <g id="Group_770" data-name="Group 770" transform="translate(0 0)">
    <g id="Group_769" data-name="Group 769" transform="translate(0 0)" clip-path="url(#clip-path)">
      <path id="Path_639" data-name="Path 639" d="M15.561,15.144a2.467,2.467,0,0,0-2.771.421,1.241,1.241,0,0,1-1.115-.157,2.019,2.019,0,0,0-1.9-.422,1.074,1.074,0,0,1-1.455-.7A1.592,1.592,0,0,0,6.97,13.238a1.173,1.173,0,0,1-1.1-1.426,1.472,1.472,0,0,0-.743-1.379,1.165,1.165,0,0,1-.377-1.756,1.5,1.5,0,0,0-.083-1.636,1.073,1.073,0,0,1,.393-1.613,1.544,1.544,0,0,0,.708-1.482A1.268,1.268,0,0,1,6.9,2.524a2.23,2.23,0,0,0,1.194-.982C8.5.848,8.945.508,9.741.783A1.564,1.564,0,0,0,11.333.368,1.252,1.252,0,0,1,13.092.352,2.324,2.324,0,0,0,14.6.694a1.478,1.478,0,0,1,1.782.859,2.273,2.273,0,0,0,1.267.887c.727.242,1.151.6,1.057,1.4a1.518,1.518,0,0,0,.77,1.446,1.209,1.209,0,0,1,.4,1.7,2.066,2.066,0,0,0-.007,1.465,1.425,1.425,0,0,1-.417,1.919,2.269,2.269,0,0,0-.617,1.414c-.079.761-.312,1.251-1.126,1.334-.687.071-1,.568-1.321,1.106a6.13,6.13,0,0,1-.82.918m3.077-7.207a6.354,6.354,0,1,0-6.5,6.27,6.356,6.356,0,0,0,6.5-6.27" transform="translate(-3.051 0)" fill="#4552ff"/>
      <path id="Path_640" data-name="Path 640" d="M4.785,52.811c-.4-.891-.758-1.612-1.037-2.365a.767.767,0,0,0-.941-.569c-.857.087-1.72.118-2.807.186L3.609,43.79a1.253,1.253,0,0,1,1.2.9,1.224,1.224,0,0,0,1.672.846,1.812,1.812,0,0,1,2.1.707l-3.8,6.567" transform="translate(0 -29.98)" fill="#4552ff"/>
      <path id="Path_641" data-name="Path 641" d="M36.231,42.734l3.8,6.593c-1.043-.061-1.913-.084-2.776-.173a.8.8,0,0,0-.989.612c-.261.735-.621,1.435-1.015,2.321l-3.749-6.469a2.072,2.072,0,0,1,2.343-.851,1.078,1.078,0,0,0,1.417-.628c.24-.433.56-.822.964-1.4" transform="translate(-21.571 -29.257)" fill="#4552ff"/>
      <path id="Path_642" data-name="Path 642" d="M17.214,7.238a5.562,5.562,0,1,0,5.563,5.547,5.564,5.564,0,0,0-5.563-5.547m-2.646,6.588a.954.954,0,1,1,.956-.952.952.952,0,0,1-.956.952m2.86-.952a.954.954,0,1,1,.956-.956.954.954,0,0,1-.956.956m2.86.952a.954.954,0,1,1,.956-.952.952.952,0,0,1-.956.952" transform="translate(-7.994 -4.955)" fill="#4552ff"/>
    </g>
  </g>
</svg>
