<svg xmlns="http://www.w3.org/2000/svg" xmlns:xlink="http://www.w3.org/1999/xlink" width="24.845" height="18.192" viewBox="0 0 24.845 18.192">
  <defs>
    <clipPath id="clip-path">
      <rect id="Rectangle_479" data-name="Rectangle 479" width="24.845" height="18.192" fill="none"/>
    </clipPath>
  </defs>
  <g id="Group_771" data-name="Group 771" clip-path="url(#clip-path)">
    <path id="Path_643" data-name="Path 643" d="M11.589,12.714a16.636,16.636,0,0,0-4.626,6.849,4.9,4.9,0,0,0-.373,1.646,3.8,3.8,0,0,0,.083,1,1.249,1.249,0,0,0,.157.406c.079.134.286.387-.077.458a10.374,10.374,0,0,0-1.082.261C.6,24.972-.058,22.66,0,21.109a4.878,4.878,0,0,1,.373-1.646c3.489-8.5,7.959-8.289,7.959-8.289a5.914,5.914,0,0,1,3.206,1.284s.173.154.046.257" transform="translate(0 -5.826)" fill="#4552ff"/>
    <path id="Path_644" data-name="Path 644" d="M6.99,5.081A1.645,1.645,0,1,1,5.346,3.437,1.644,1.644,0,0,1,6.99,5.081" transform="translate(-1.93 -1.792)" fill="#4552ff"/>
    <path id="Path_645" data-name="Path 645" d="M17.3,1.644A1.645,1.645,0,1,1,15.655,0,1.644,1.644,0,0,1,17.3,1.644" transform="translate(-7.305 0)" fill="#4552ff"/>
    <path id="Path_646" data-name="Path 646" d="M33.709,21.741C33.4,25.7,28.023,23.55,28.023,23.55a10.213,10.213,0,0,0-1.512-.306,8.716,8.716,0,0,0-3.819.306c-.168.053-.335.105-.493.153-2.824.814-4.149.306-4.743-.555a3.04,3.04,0,0,1-.431-1.823,4.9,4.9,0,0,1,.373-1.646c1.555-3.786,3.3-5.844,4.767-6.959a5.379,5.379,0,0,1,3.192-1.326c4.441.273,7.227,6.361,8.045,8.428a4.333,4.333,0,0,1,.306,1.919" transform="translate(-8.875 -5.94)" fill="#4552ff"/>
    <path id="Path_647" data-name="Path 647" d="M34.321,1.858A1.645,1.645,0,1,1,32.677.214a1.644,1.644,0,0,1,1.644,1.644" transform="translate(-16.18 -0.111)" fill="#4552ff"/>
    <path id="Path_648" data-name="Path 648" d="M44.63,5.3a1.645,1.645,0,1,1-1.644-1.644A1.645,1.645,0,0,1,44.63,5.3" transform="translate(-21.555 -1.904)" fill="#4552ff"/>
  </g>
</svg>
