<svg xmlns="http://www.w3.org/2000/svg" xmlns:xlink="http://www.w3.org/1999/xlink" width="22.557" height="30.786" viewBox="0 0 22.557 30.786">
  <defs>
    <clipPath id="clip-path">
      <rect id="Rectangle_156" data-name="Rectangle 156" width="22.557" height="30.786" fill="#f6ffff"/>
    </clipPath>
  </defs>
  <g id="Group_182" data-name="Group 182" clip-path="url(#clip-path)">
    <path id="Path_118" data-name="Path 118" d="M7.657,40.233a12.443,12.443,0,0,1,7.206,0s7.266,2.9,7.678-2.445a5.838,5.838,0,0,0-.412-2.592c-1.109-2.8-4.868-11.019-10.868-11.39,0,0-6.04-.288-10.755,11.2A6.61,6.61,0,0,0,0,37.227c-.088,2.1.806,5.218,7.653,3.006" transform="translate(0 -10.234)" fill="#f6ffff"/>
    <path id="Path_119" data-name="Path 119" d="M21.345,6.349A6.349,6.349,0,1,1,15,0a6.339,6.339,0,0,1,6.349,6.349" transform="translate(-3.717)" fill="#f6ffff"/>
  </g>
</svg>
