<svg xmlns="http://www.w3.org/2000/svg" xmlns:xlink="http://www.w3.org/1999/xlink" width="19.705" height="19.279" viewBox="0 0 19.705 19.279">
  <defs>
    <clipPath id="clip-path">
      <rect id="Rectangle_481" data-name="Rectangle 481" width="19.705" height="19.279" fill="none"/>
    </clipPath>
  </defs>
  <g id="Group_775" data-name="Group 775" clip-path="url(#clip-path)">
    <path id="Path_654" data-name="Path 654" d="M0,12.363v9.831a3.405,3.405,0,0,0,3.4,3.4H16.309a3.406,3.406,0,0,0,3.4-3.4V12.363Zm14.825,3.908a.589.589,0,1,1,0,.833.589.589,0,0,1,0-.833m-10.978,0a.588.588,0,1,1,0,.832.588.588,0,0,1,0-.832M2.182,19.6a.589.589,0,1,1,0-.832.589.589,0,0,1,0,.832m0-1.664a.589.589,0,1,1,.832,0,.589.589,0,0,1-.832,0m5.1,2.927a3.293,3.293,0,0,0-1.35,1.35c-.868,1.7-1.62,1.28-2,.87a1.757,1.757,0,0,1-.323-.511c-1.268-3.034-.082-4.112-.082-4.112,1.193-1.055,3.438-.219,4.169.1a1.544,1.544,0,0,1,.563.408c.925,1.079-.981,1.9-.981,1.9m8.583,1.76a1.549,1.549,0,0,1-.409.562c-1.079.925-1.9-.98-1.9-.98a3.3,3.3,0,0,0-1.35-1.35c-1.7-.868-1.28-1.62-.87-2a1.757,1.757,0,0,1,.511-.323c3.034-1.268,4.112-.083,4.112-.083,1.054,1.194.218,3.438-.1,4.17m.622-4.688a.589.589,0,1,1,.833,0,.588.588,0,0,1-.833,0M18.155,19.6a.588.588,0,1,1,0-.832.588.588,0,0,1,0,.832" transform="translate(0 -6.311)" fill="#4552ff"/>
    <path id="Path_655" data-name="Path 655" d="M16.309,0H3.4A3.405,3.405,0,0,0,0,3.4V4.7H19.7V3.4a3.406,3.406,0,0,0-3.4-3.4M7.363,3.767a2.489,2.489,0,1,1,4.977,0Z" transform="translate(0 0)" fill="#4552ff"/>
    <path id="Path_656" data-name="Path 656" d="M19.665,5.278a.226.226,0,1,1,.451,0V6.366h-.451Z" transform="translate(-10.038 -2.579)" fill="#4552ff"/>
  </g>
</svg>
