<svg xmlns="http://www.w3.org/2000/svg" xmlns:xlink="http://www.w3.org/1999/xlink" width="16.237" height="22.619" viewBox="0 0 16.237 22.619">
  <defs>
    <clipPath id="clip-path">
      <rect id="Rectangle_480" data-name="Rectangle 480" width="16.237" height="22.619" fill="none"/>
    </clipPath>
  </defs>
  <g id="Group_774" data-name="Group 774" transform="translate(0 0)">
    <g id="Group_773" data-name="Group 773" transform="translate(0 0)" clip-path="url(#clip-path)">
      <path id="Path_650" data-name="Path 650" d="M8.121,14.727a8.118,8.118,0,1,0,8.116,8.116,8.12,8.12,0,0,0-8.116-8.116m3.519,12.268a1.031,1.031,0,0,1-1.465,0L7.107,23.927a1.028,1.028,0,0,1-.3-.672.28.28,0,0,1,0-.1V18.813a1.036,1.036,0,0,1,2.071,0v3.952l2.765,2.765a1.038,1.038,0,0,1,0,1.465" transform="translate(0 -8.345)" fill="#4552ff"/>
      <path id="Path_651" data-name="Path 651" d="M5.1,6.24A1.887,1.887,0,1,1,3.21,4.353,1.887,1.887,0,0,1,5.1,6.24" transform="translate(-0.75 -2.467)" fill="#4552ff"/>
      <path id="Path_652" data-name="Path 652" d="M18.158,1.887A1.887,1.887,0,1,1,16.271,0a1.887,1.887,0,0,1,1.887,1.887" transform="translate(-8.152 0)" fill="#4552ff"/>
      <path id="Path_653" data-name="Path 653" d="M31.219,6.24a1.887,1.887,0,1,1-1.887-1.887A1.887,1.887,0,0,1,31.219,6.24" transform="translate(-15.553 -2.467)" fill="#4552ff"/>
    </g>
  </g>
</svg>
